HIERARCHY
ROOT Hips
{
	OFFSET 0.00000 0.00000 0.00000
	CHANNELS 6 Xposition Yposition Zposition Zrotation Yrotation Xrotation 
	JOINT LHipJoint
	{
		OFFSET 0 0 0
		CHANNELS 3 Zrotation Yrotation Xrotation
		JOINT LeftUpLeg
		{
			OFFSET 1.56857 -1.73443 1.15205
			CHANNELS 3 Zrotation Yrotation Xrotation
			JOINT LeftLeg
			{
				OFFSET 2.39362 -6.57643 0.00000
				CHANNELS 3 Zrotation Yrotation Xrotation
				JOINT LeftFoot
				{
					OFFSET 2.50952 -6.89485 0.00000
					CHANNELS 3 Zrotation Yrotation Xrotation
					JOINT LeftToeBase
					{
						OFFSET 0.17171 -0.47178 1.88682
						CHANNELS 3 Zrotation Yrotation Xrotation
						End Site
						{
							OFFSET 0.00000 -0.00000 0.98146
						}
					}
				}
			}
		}
	}
	JOINT RHipJoint
	{
		OFFSET 0 0 0
		CHANNELS 3 Zrotation Yrotation Xrotation
		JOINT RightUpLeg
		{
			OFFSET -1.28153 -1.73443 1.15205
			CHANNELS 3 Zrotation Yrotation Xrotation
			JOINT RightLeg
			{
				OFFSET -2.26861 -6.23296 0.00000
				CHANNELS 3 Zrotation Yrotation Xrotation
				JOINT RightFoot
				{
					OFFSET -2.54143 -6.98254 0.00000
					CHANNELS 3 Zrotation Yrotation Xrotation
					JOINT RightToeBase
					{
						OFFSET -0.23309 -0.64041 1.93119
						CHANNELS 3 Zrotation Yrotation Xrotation
						End Site
						{
							OFFSET -0.00000 -0.00000 1.02013
						}
					}
				}
			}
		}
	}
	JOINT LowerBack
	{
		OFFSET 0 0 0
		CHANNELS 3 Zrotation Yrotation Xrotation
		JOINT Spine
		{
			OFFSET -0.07096 2.10460 -0.27878
			CHANNELS 3 Zrotation Yrotation Xrotation
			JOINT Spine1
			{
				OFFSET -0.00826 2.13662 -0.08279
				CHANNELS 3 Zrotation Yrotation Xrotation
				JOINT Neck
				{
					OFFSET 0 0 0
					CHANNELS 3 Zrotation Yrotation Xrotation
					JOINT Neck1
					{
						OFFSET 0.03239 1.77799 0.24435
						CHANNELS 3 Zrotation Yrotation Xrotation
						JOINT Head
						{
							OFFSET 0.01026 1.74194 -0.49664
							CHANNELS 3 Zrotation Yrotation Xrotation
							End Site
							{
								OFFSET 0.00170 1.83057 -0.19653
							}
						}
					}
				}
				JOINT LeftShoulder
				{
					OFFSET 0 0 0
					CHANNELS 3 Zrotation Yrotation Xrotation
					JOINT LeftArm
					{
						OFFSET 3.19178 1.35907 -0.31412
						CHANNELS 3 Zrotation Yrotation Xrotation
						JOINT LeftForeArm
						{
							OFFSET 4.85247 -0.00000 -0.00000
							CHANNELS 3 Zrotation Yrotation Xrotation
							JOINT LeftHand
							{
								OFFSET 3.55584 -0.00000 0.00000
								CHANNELS 3 Zrotation Yrotation Xrotation
								JOINT LeftFingerBase
								{
									OFFSET 0 0 0
									CHANNELS 3 Zrotation Yrotation Xrotation
									JOINT LeftHandIndex1
									{
										OFFSET 0.69320 -0.00000 0.00000
										CHANNELS 3 Zrotation Yrotation Xrotation
										End Site
										{
											OFFSET 0.55888 -0.00000 0.00000
										}
									}
								}
								JOINT LThumb
								{
									OFFSET 0 0 0
									CHANNELS 3 Zrotation Yrotation Xrotation
									End Site
									{
										OFFSET 0.56741 -0.00000 0.56741
									}
								}
							}
						}
					}
				}
				JOINT RightShoulder
				{
					OFFSET 0 0 0
					CHANNELS 3 Zrotation Yrotation Xrotation
					JOINT RightArm
					{
						OFFSET -3.28999 1.24191 -0.26899
						CHANNELS 3 Zrotation Yrotation Xrotation
						JOINT RightForeArm
						{
							OFFSET -4.64462 -0.00000 0.00000
							CHANNELS 3 Zrotation Yrotation Xrotation
							JOINT RightHand
							{
								OFFSET -3.40703 -0.00000 0.00000
								CHANNELS 3 Zrotation Yrotation Xrotation
								JOINT RightFingerBase
								{
									OFFSET 0 0 0
									CHANNELS 3 Zrotation Yrotation Xrotation
									JOINT RightHandIndex1
									{
										OFFSET -0.61958 -0.00000 0.00000
										CHANNELS 3 Zrotation Yrotation Xrotation
										End Site
										{
											OFFSET -0.49952 -0.00000 0.00000
										}
									}
								}
								JOINT RThumb
								{
									OFFSET 0 0 0
									CHANNELS 3 Zrotation Yrotation Xrotation
									End Site
									{
										OFFSET -0.50715 -0.00000 0.50715
									}
								}
							}
						}
					}
				}
			}
		}
	}
}
MOTION
Frames: 6
Frame Time: 0.0240964
0.00 0.00 0.00 0 0 0 0 0 0 -21 0 0 0 0 0 0 0 0 0 0 0 0 0 0 21 0 0 0 0 0 0 0 0 0 0 0 0 0 0 0 0 0 0 0 0 0 0 -16 0 0 21 0 0 11 0 0 0 -8 0 0 0 0 0 0 0 0 0 0 0 0 0 0 0 0 0 0 0 0 8 0 0 0 0 0 0 0 0 0 0 0 0 0 0 0 0 0
0.00 0.00 0.00 -7.7168 72.3798 -4.3695 0.0000 0.0000 0.0000 9.7201 9.2861 2.5955 10.4569 17.6589 61.0047 0.2095 -2.1546 9.7160 1.0474 -6.5081 -18.2660 0.0000 0.0000 0.0000 8.9496 -5.9714 -32.2309 -4.7682 -13.1179 39.8115 -0.1393 -2.2394 -8.2458 -0.5553 -4.7734 13.2634 -16.4604 -2.5839 24.6308 -10.1406 -6.5596 9.2504 -0.3169 -2.9053 -2.5019 5.6342 12.5749 -19.2011 -0.9665 15.8540 14.5244 0.8262 7.7227 8.1134 0.0000 0.0000 0.0000 -71.3972 -29.3336 60.2575 79.3599 -59.5679 -50.7988 -0.0000 -0.0000 3.3224 38.5859 -34.8026 -24.4843 -7.1250 0.0000 -0.0000 2.9551 -11.6157 -3.4937 0.0000 0.0000 0.0000 15.6190 -7.6345 -43.3870 -28.6398 39.6986 -10.5299 0.0000 -0.0000 -40.6145 -33.5119 -28.5100 17.5401 7.1250 -0.0000 -0.0000 -3.7020 -63.0261 1.6213
0.00 0.00 0.00 -10.7386 70.4198 -10.4326 0.0000 0.0000 0.0000 9.7587 10.8673 4.4443 16.1473 19.6403 78.6702 -0.4448 -14.6958 14.8922 0.9665 -6.2592 -17.5384 0.0000 0.0000 0.0000 13.9435 -5.5087 -26.0956 -4.8150 -13.1724 40.0171 -1.2480 0.4558 -20.9831 -0.0110 0.6777 -1.8623 -15.0163 -1.1556 26.4532 -10.9880 -4.9845 8.6592 -2.3366 -1.9752 -4.4894 6.7301 12.1638 -16.7651 -0.5216 15.1380 14.4605 0.5696 7.5350 7.7202 0.0000 -0.0000 0.0000 -70.7998 -24.1181 51.6942 85.6497 -59.9284 -56.2334 -0.0000 -0.0000 0.8010 40.6535 -33.0306 -25.0833 -7.1250 0.0000 -0.0000 4.5381 -10.5037 -5.3045 0.0000 -0.0000 0.0000 1.0835 -0.4827 -43.8845 -29.0749 40.0872 -10.8089 0.0000 -0.0000 -38.6186 -34.7447 -29.2592 18.7266 7.1250 -0.0000 -0.0000 -5.1039 -64.1968 2.3764
0.00 0.00 0.00 -12.8760 70.2670 -13.0094 0.0000 0.0000 0.0000 10.1934 10.8496 4.0108 17.6180 19.8634 83.0203 -4.1063 -35.4443 28.7483 1.3512 -7.3586 -20.7821 0.0000 0.0000 0.0000 15.6231 -4.1694 -25.4388 -5.1774 -13.5809 41.5838 -1.5953 0.1065 -23.8700 -0.0568 1.5384 -4.2316 -14.1042 -0.9222 27.2253 -10.9746 -4.6848 8.4429 -2.8826 -1.7915 -5.2346 6.4367 11.9356 -16.2144 -0.0543 14.8571 14.2444 0.6753 7.4442 7.4874 0.0000 0.0000 0.0000 -70.8230 -22.9370 49.6522 86.2036 -59.9455 -56.7128 -0.0000 -0.0000 0.5585 40.7389 -32.1264 -24.6096 -7.1250 0.0000 -0.0000 4.8320 -9.5454 -5.5846 0.0000 0.0000 0.0000 -2.1483 1.4227 -44.0294 -29.2366 40.2300 -10.9132 0.0000 -0.0000 -37.5142 -34.3669 -29.4789 18.5998 7.1250 -0.0000 -0.0000 -4.5248 -64.3300 2.1203
0.00 0.00 0.00 -15.7307 69.8338 -16.2737 0.0000 0.0000 0.0000 11.1105 10.9236 3.5699 18.5700 19.9509 85.8158 -7.0956 -49.9213 53.9464 1.1083 -6.6886 -18.7962 0.0000 0.0000 0.0000 17.7329 -2.6814 -25.1282 -5.6747 -14.1055 43.6618 -1.8731 -0.4916 -26.0807 -0.0422 1.3253 -3.6443 -12.7200 -0.5908 27.8482 -11.0388 -4.0672 8.3424 -3.8977 -1.4735 -5.8168 6.5483 11.5834 -15.8100 0.2462 14.3295 13.9582 0.6522 7.2376 7.2969 -0.0000 -0.0000 0.0000 -70.5074 -22.4378 48.0008 85.5175 -59.9239 -56.1190 -0.0000 -0.0000 0.1798 40.4195 -31.5530 -24.0206 -7.1250 0.0000 -0.0000 4.8140 -8.7875 -5.5109 -0.0000 -0.0000 0.0000 -4.7599 2.7537 -43.7599 -29.8290 40.7463 -11.2978 0.0000 -0.0000 -37.4654 -34.3237 -29.3076 18.4801 7.1250 -0.0000 -0.0000 -4.5216 -64.1298 2.0977
0.00 0.00 0.00 -19.4857 69.5901 -20.0328 0.0000 0.0000 0.0000 12.3046 10.8974 2.2325 18.7202 19.9607 86.2559 26.1296 -60.4344 92.9983 1.1793 -6.8923 -19.3968 0.0000 0.0000 0.0000 20.1724 -1.5071 -25.7391 -6.3169 -14.7286 46.2408 -2.0860 -1.2290 -27.7834 -0.0193 0.8958 -2.4623 -11.0845 -0.4430 28.1906 -10.9243 -3.5282 8.3055 -4.8472 -1.2188 -6.1620 6.5907 11.2391 -15.6023 0.3443 13.8429 13.5922 0.5916 7.0220 7.1252 0.0000 0.0000 0.0000 -70.4274 -21.9733 46.2470 84.7008 -59.8936 -55.4124 -0.0000 0.0000 -0.2636 39.9512 -31.2322 -23.4767 -7.1250 0.0000 -0.0000 4.6445 -8.2528 -5.2792 0.0000 0.0000 0.0000 -7.4125 3.9682 -43.3862 -30.5379 41.3500 -11.7634 0.0000 -0.0000 -37.5011 -34.1797 -29.2652 18.3647 7.1250 -0.0000 -0.0000 -4.3420 -64.0421 2.0053
